<svg xmlns="http://www.w3.org/2000/svg" viewBox="0 0 80 40"><defs><style>.a{fill:#fff;}.b{opacity:0.2;}.c,.d,.f{fill:none;}.c{stroke:#000;}.c,.f{stroke-miterlimit:10;stroke-width:1.25px;}.e{opacity:0.5;}.f{stroke:#fff;}</style></defs><title>icon-fullscreen</title><circle class="a" cx="60" cy="20" r="18.35"/><g class="b"><path d="M60,1.65A18.35,18.35,0,1,1,41.65,20,18.35,18.35,0,0,1,60,1.65m0-1.5A19.85,19.85,0,1,0,79.85,20,19.88,19.88,0,0,0,60,.15Z"/></g><polyline class="c" points="67.64 18.1 67.64 12.37 61.9 12.37"/><polyline class="c" points="58.1 12.37 52.37 12.37 52.37 18.1"/><polyline class="c" points="52.37 21.9 52.37 27.64 58.1 27.64"/><polyline class="c" points="61.9 27.64 67.64 27.64 67.64 21.9"/><rect class="d" x="40" width="40" height="40"/><circle cx="20" cy="20" r="18.35"/><g class="e"><path class="a" d="M20,1.65A18.35,18.35,0,1,1,1.65,20,18.35,18.35,0,0,1,20,1.65m0-1.5A19.85,19.85,0,1,0,39.85,20,19.88,19.88,0,0,0,20,.15Z"/></g><polyline class="f" points="27.64 18.1 27.64 12.37 21.9 12.37"/><polyline class="f" points="18.1 12.37 12.37 12.37 12.37 18.1"/><polyline class="f" points="12.37 21.9 12.37 27.64 18.1 27.64"/><polyline class="f" points="21.9 27.64 27.64 27.64 27.64 21.9"/><rect class="d" width="40" height="40"/></svg>