<svg xmlns="http://www.w3.org/2000/svg" viewBox="0 0 80.36 80.68"><defs><style>.a{opacity:0.5;}.b{fill:#999;}</style></defs><title>icon-orientation</title><g class="a"><path class="b" d="M25.05,72.17l4.57-4.41L42.39,80.52l-2.21.16A38.92,38.92,0,0,1,12.84,70,39,39,0,0,1,0,43.65H5a35.19,35.19,0,0,0,20,28.52ZM34.19,5.83l40.5,40.5a4.5,4.5,0,0,1,1.58,3.47,5,5,0,0,1-1.58,3.62L53.26,74.85a4.49,4.49,0,0,1-3.47,1.58,5,5,0,0,1-3.62-1.58L5.67,34.35A4.48,4.48,0,0,1,4.1,30.88a5,5,0,0,1,1.58-3.62L27.1,5.83a4.49,4.49,0,0,1,3.47-1.58A5,5,0,0,1,34.19,5.83ZM49.64,71.22,71.07,49.79,30.73,9.45,9.3,30.88ZM55.31,8.51l-4.57,4.41L38,.16,40.18,0A38.93,38.93,0,0,1,67.52,10.72,39,39,0,0,1,80.36,37h-5a35.19,35.19,0,0,0-20-28.52Z"/></g></svg>