<svg xmlns="http://www.w3.org/2000/svg" viewBox="0 0 60 30"><defs><style>.a{opacity:0.2;}.b{fill:#fff;}.c,.d,.e{fill:none;}.c{stroke:#fff;}.c,.e{stroke-miterlimit:10;}.e{stroke:#000;}</style></defs><title>icon-360</title><circle cx="15" cy="15" r="13.77"/><g class="a"><path class="b" d="M15,1.23A13.77,13.77,0,1,1,1.23,15,13.77,13.77,0,0,1,15,1.23m0-1A14.77,14.77,0,1,0,29.77,15,14.78,14.78,0,0,0,15,.23Z"/></g><path class="c" d="M24.1,15.06a9.13,9.13,0,0,1-.92,4q-.14.29-.31.58t-.36.56q-.19.28-.4.54t-.45.52A9.15,9.15,0,1,1,21,8.2"/><polygon class="b" points="18.52 9.28 23.18 11.05 22.39 6.13 18.52 9.28"/><polygon class="b" points="11.06 17.43 14.47 19.39 14.47 15.47 11.06 13.51 11.06 17.43"/><polygon class="b" points="15 10.61 11.6 12.57 15 14.54 18.4 12.57 15 10.61"/><polygon class="b" points="15.55 15.46 15.55 19.38 18.94 17.43 18.94 13.51 15.55 15.46"/><rect class="d" width="30" height="30"/><circle class="b" cx="45" cy="15" r="13.77"/><g class="a"><path d="M45,1.23A13.77,13.77,0,1,1,31.23,15,13.77,13.77,0,0,1,45,1.23m0-1A14.77,14.77,0,1,0,59.77,15,14.78,14.78,0,0,0,45,.23Z"/></g><path class="e" d="M54.1,15.06a9.13,9.13,0,0,1-.92,4q-.14.29-.31.58t-.36.56q-.19.28-.4.54t-.45.52A9.15,9.15,0,1,1,51,8.2"/><polygon points="48.52 9.28 53.18 11.05 52.39 6.13 48.52 9.28"/><polygon points="41.06 17.43 44.47 19.39 44.47 15.47 41.06 13.51 41.06 17.43"/><polygon points="45 10.61 41.6 12.57 45 14.54 48.4 12.57 45 10.61"/><polygon points="45.55 15.46 45.55 19.38 48.94 17.43 48.94 13.51 45.55 15.46"/><rect class="d" x="30" width="30" height="30"/></svg>