<svg xmlns="http://www.w3.org/2000/svg" viewBox="0 0 80 40"><defs><style>.a{opacity:0.2;}.b{fill:#fff;}.c{fill:none;}</style></defs><title>icon-zoomout</title><circle cx="20" cy="20" r="18.35"/><g class="a"><path class="b" d="M20,1.65A18.35,18.35,0,1,1,1.65,20,18.35,18.35,0,0,1,20,1.65m0-1A19.35,19.35,0,1,0,39.35,20,19.38,19.38,0,0,0,20,.65Z"/></g><polygon class="b" points="20.94 20.94 24.79 20.94 24.79 19.06 20.94 19.06 19.06 19.06 15.21 19.06 15.21 20.94 19.06 20.94 20.94 20.94"/><rect class="c" width="40" height="40"/><circle class="b" cx="60" cy="20" r="18.35"/><g class="a"><path d="M60,1.65A18.35,18.35,0,1,1,41.65,20,18.35,18.35,0,0,1,60,1.65m0-1A19.35,19.35,0,1,0,79.35,20,19.38,19.38,0,0,0,60,.65Z"/></g><polygon points="60.94 20.94 64.79 20.94 64.79 19.06 60.94 19.06 59.06 19.06 55.21 19.06 55.21 20.94 59.06 20.94 60.94 20.94"/><rect class="c" x="40" width="40" height="40"/></svg>